<?xml version="1.0" encoding="utf-8"?>
<!-- Generator: Adobe Illustrator 22.0.1, SVG Export Plug-In . SVG Version: 6.00 Build 0)  -->
<svg version="1.1" id="Слой_1" xmlns="http://www.w3.org/2000/svg" xmlns:xlink="http://www.w3.org/1999/xlink" x="0px" y="0px"
	 viewBox="0 0 37.6 38.4" style="enable-background:new 0 0 37.6 38.4;" xml:space="preserve">
<style type="text/css">
	.st0{fill:#FFFFFF;}
</style>
<g>
	<path class="st0" d="M7.5,29.6c-2-1-3.4-2.7-4.7-4.2c-1.3-1.5,0.5-2.2,1.3-2.9c4.1-4.2,8.4-8.2,12.4-12.4C18,8.5,19,8.2,20.7,10
		c4.1,4.4,8.3,8.6,12.7,12.7c2.4,2.3,0.5,3.4-0.9,4.8c-1.4,1.3-2.5,3.4-4.7,0.9c-2.3-2.6-5-4.9-7.3-7.5c-1.3-1.5-2.3-1.4-3.6,0
		c-2.3,2.4-4.8,4.7-7.2,7.1C9,28.4,8.3,29,7.5,29.6z"/>
</g>
</svg>
